<svg width="343" height="55" viewBox="0 0 343 55" fill="none" xmlns="http://www.w3.org/2000/svg">
<mask id="mask0_4310_99" style="mask-type:alpha" maskUnits="userSpaceOnUse" x="0" y="0" width="77" height="55">
<path d="M76.1754 17.8062V21.1464C76.1754 22.6009 75.5828 24.0286 74.5592 25.0522L46.3564 53.2281C45.3328 54.2517 43.9052 54.8443 42.4506 54.8443H34.6389C33.1843 54.8443 31.7567 54.2517 30.7331 53.2281L2.53027 25.0252C1.50667 24.0016 0.914062 22.574 0.914062 21.1194V17.7793C0.914062 16.3247 1.50667 14.897 2.53027 13.8734L14.571 1.85962C15.5946 0.836017 16.9953 0.243408 18.4768 0.243408H23.6487C25.1033 0.243408 26.5309 0.836017 27.5545 1.85962L34.6658 8.97092C36.8208 11.1259 40.3226 11.1259 42.4775 8.97092L49.5888 1.85962C50.6124 0.836017 52.0401 0.243408 53.4947 0.243408H58.6665C60.1211 0.243408 61.5488 0.836017 62.5724 1.85962L74.6131 13.9004C75.5828 14.924 76.1754 16.3247 76.1754 17.8062Z" fill="#D9D9D9"/>
</mask>
<g mask="url(#mask0_4310_99)">
<path fill-rule="evenodd" clip-rule="evenodd" d="M62.0047 1.37054C62.2048 1.52141 62.3947 1.68612 62.5724 1.86383L74.6131 13.9046C75.5828 14.9282 76.1754 16.3289 76.1754 17.8104V21.1506C76.1754 22.6052 75.5828 24.0328 74.5592 25.0564L71.2287 28.3837C71.3168 28.6646 71.3643 28.9635 71.3643 29.2734C71.3643 30.9136 70.0347 32.2432 68.3945 32.2432C68.0836 32.2432 67.7838 32.1954 67.5021 32.1068L46.3564 53.2323C45.3328 54.2559 43.9052 54.8485 42.4506 54.8485H36.2587C35.6969 56.1853 34.3752 57.124 32.8343 57.124C30.7838 57.124 29.1215 55.4617 29.1215 53.4112C29.1215 52.8841 29.2313 52.3827 29.4293 51.9285L16.8584 39.3576C16.5911 39.4366 16.308 39.479 16.015 39.479C14.3749 39.479 13.0453 38.1494 13.0453 36.5093C13.0453 36.2163 13.0877 35.9333 13.1667 35.6659L2.53027 25.0295C1.50667 24.0059 0.914062 22.5782 0.914062 21.1236V17.7835C0.914062 16.3289 1.50667 14.9012 2.53027 13.8776L4.64138 11.7712C4.2213 11.0251 3.98168 10.1637 3.98168 9.24642C3.98168 6.39978 6.28933 4.09212 9.13597 4.09212C10.0574 4.09212 10.9224 4.33391 11.6709 4.75749L14.571 1.86383C15.5946 0.840229 16.9953 0.24762 18.4768 0.24762H23.6487C25.1033 0.24762 26.5309 0.840229 27.5545 1.86383L34.6658 8.97513C36.8208 11.1301 40.3226 11.1301 42.4775 8.97513L49.5888 1.86383C49.7089 1.74379 49.8345 1.62967 49.965 1.52175C50.1384 -1.65537 52.7695 -4.17822 55.9899 -4.17822C59.1591 -4.17822 61.7576 -1.73505 62.0047 1.37054ZM34.8273 50.2781C34.2515 49.911 33.5677 49.6984 32.8343 49.6984C32.1578 49.6984 31.5236 49.8793 30.9774 50.1954L18.6543 37.8722C18.6678 37.846 18.681 37.8195 18.6939 37.7928L37.7937 43.7064C37.8288 43.2382 37.9678 42.7989 38.1876 42.4116L18.9845 36.466C18.9811 36.2312 18.9505 36.003 18.8957 35.7844L27.3202 32.2866C27.078 31.9102 26.905 31.4851 26.8191 31.0292L18.2714 34.5782C18.0411 34.3095 17.7637 34.0823 17.4519 33.9096L21.201 22.0009C20.769 21.8272 20.3638 21.6009 19.9933 21.3299L16.1486 33.5425C16.1043 33.5405 16.0598 33.5395 16.015 33.5395L15.9729 33.5398L10.7313 14.1491C11.7157 13.829 12.57 13.2207 13.1947 12.4238L17.9774 15.1225C18.1182 14.6861 18.3114 14.2733 18.5496 13.8914L13.8829 11.2581C14.1452 10.64 14.2903 9.96015 14.2903 9.24642C14.2903 8.16219 13.9555 7.15616 13.3837 6.32604L16.2098 3.50627L16.2116 3.50443C16.8042 2.91184 17.6165 2.56778 18.4768 2.56778H23.6487C24.4881 2.56778 25.3256 2.91609 25.9139 3.50443L31.4838 9.07434V18.6108L28.7521 17.8467C28.669 18.2987 28.5313 18.7317 28.346 19.1384L31.9761 20.1539L31.9783 20.1545L40.5286 22.5773C40.5493 22.1067 40.6767 21.6638 40.8872 21.2723L32.8373 18.9912V10.4278L33.0252 10.6157C36.0863 13.6768 41.0571 13.6768 44.1181 10.6157L50.46 4.27389C50.904 5.28782 51.6186 6.15621 52.5126 6.78767L44.4829 19.8031C44.9245 19.9408 45.323 20.1763 45.653 20.4841L53.7003 7.44022C54.4063 7.73 55.1795 7.88978 55.9899 7.88978C56.4024 7.88978 56.8052 7.84839 57.1944 7.76955L58.9728 15.7351C59.3796 15.5528 59.8191 15.4306 60.2802 15.3798L58.4875 7.35022C59.8808 6.71584 60.9905 5.56708 61.5739 4.14656L72.9474 15.5201C73.5129 16.1269 73.8553 16.9536 73.8553 17.8104V21.1506C73.8553 21.99 73.507 22.8275 72.9186 23.4158L69.7175 26.6139C69.3191 26.4153 68.8699 26.3037 68.3945 26.3037C67.993 26.3037 67.61 26.3834 67.2606 26.5279L63.9704 22.7477C63.6608 23.0778 63.3007 23.3601 62.9025 23.5822L66.1567 27.3211C65.7095 27.8332 65.4353 28.5002 65.4251 29.231L50.9636 33.0307C51.1177 33.4477 51.2115 33.894 51.2343 34.359L65.7145 30.5544L65.7232 30.5724L65.7337 30.5938L44.7166 51.5909L44.7158 51.5917C44.1275 52.18 43.29 52.5283 42.4506 52.5283H36.4415C36.3227 52.0413 36.1079 51.5919 35.8182 51.2014L39.631 46.781C39.2101 46.5941 38.8384 46.3163 38.541 45.9726L34.8273 50.2781ZM14.6592 33.8664L14.6521 33.8701L4.17087 23.3889C3.58253 22.8005 3.23422 21.9631 3.23422 21.1236V17.7835C3.23422 16.9445 3.58214 16.1075 4.16988 15.5192L4.17087 15.5182L6.20609 13.4876C7.03803 14.0634 8.04761 14.4007 9.13597 14.4007C9.22304 14.4007 9.30961 14.3986 9.39562 14.3943L14.6592 33.8664ZM46.3918 21.5482L56.3783 19.9087C56.3954 20.3739 56.4849 20.8206 56.6358 21.2379L46.618 22.8826C46.621 22.8267 46.6226 22.7705 46.6226 22.7138C46.6226 22.301 46.5405 21.9073 46.3918 21.5482ZM40.6461 23.5654L32.9498 27.9998C33.2508 28.3355 33.4888 28.7288 33.6452 29.1612L41.3038 24.7484C41.0029 24.4128 40.7752 24.0101 40.6461 23.5654ZM43.64 25.7616L44.9702 30.4839C45.3779 30.3049 45.8175 30.185 46.278 30.135L44.9535 25.4331C44.5577 25.6343 44.112 25.7516 43.64 25.7616ZM45.2008 38.7731L43.237 41.9098C42.9392 41.5662 42.5672 41.2885 42.146 41.1019L44.0184 38.1113C44.3735 38.3882 44.7715 38.6127 45.2008 38.7731ZM32.9824 32.7003L39.6497 41.0947C39.2282 41.2785 38.8554 41.5531 38.5561 41.8939L31.9153 33.5329C32.3227 33.3255 32.6846 33.0416 32.9824 32.7003ZM27.5321 16.8349C27.5321 19.186 25.6262 21.0919 23.2752 21.0919C20.9241 21.0919 19.0182 19.186 19.0182 16.8349C19.0182 14.4839 20.9241 12.578 23.2752 12.578C25.6262 12.578 27.5321 14.4839 27.5321 16.8349ZM32.6499 30.3675C32.6499 31.6617 31.6008 32.7108 30.3066 32.7108C29.0125 32.7108 27.9634 31.6617 27.9634 30.3675C27.9634 29.0734 29.0125 28.0243 30.3066 28.0243C31.6008 28.0243 32.6499 29.0734 32.6499 30.3675ZM40.8885 45.8201C41.9254 45.8201 42.7659 44.9795 42.7659 43.9427C42.7659 42.9058 41.9254 42.0653 40.8885 42.0653C39.8517 42.0653 39.0111 42.9058 39.0111 43.9427C39.0111 44.9795 39.8517 45.8201 40.8885 45.8201ZM45.4526 22.7142C45.4526 23.751 44.6121 24.5916 43.5752 24.5916C42.5383 24.5916 41.6978 23.751 41.6978 22.7142C41.6978 21.6773 42.5383 20.8368 43.5752 20.8368C44.6121 20.8368 45.4526 21.6773 45.4526 22.7142ZM63.7394 19.7448C63.7394 21.385 62.4098 22.7146 60.7696 22.7146C59.1294 22.7146 57.7997 21.385 57.7997 19.7448C57.7997 18.1046 59.1294 16.7749 60.7696 16.7749C62.4098 16.7749 63.7394 18.1046 63.7394 19.7448ZM46.7664 37.7685C48.5282 37.7685 49.9564 36.3402 49.9564 34.5785C49.9564 32.8167 48.5282 31.3884 46.7664 31.3884C45.0046 31.3884 43.5764 32.8167 43.5764 34.5785C43.5764 36.3402 45.0046 37.7685 46.7664 37.7685Z" fill="white"/>
<path fill-rule="evenodd" clip-rule="evenodd" d="M62.0047 1.37054C62.2048 1.52141 62.3947 1.68612 62.5724 1.86383L74.6131 13.9046C75.5828 14.9282 76.1754 16.3289 76.1754 17.8104V21.1506C76.1754 22.6052 75.5828 24.0328 74.5592 25.0564L71.2287 28.3837C71.3168 28.6646 71.3643 28.9635 71.3643 29.2734C71.3643 30.9136 70.0347 32.2432 68.3945 32.2432C68.0836 32.2432 67.7838 32.1954 67.5021 32.1068L46.3564 53.2323C45.3328 54.2559 43.9052 54.8485 42.4506 54.8485H36.2587C35.6969 56.1853 34.3752 57.124 32.8343 57.124C30.7838 57.124 29.1215 55.4617 29.1215 53.4112C29.1215 52.8841 29.2313 52.3827 29.4293 51.9285L16.8584 39.3576C16.5911 39.4366 16.308 39.479 16.015 39.479C14.3749 39.479 13.0453 38.1494 13.0453 36.5093C13.0453 36.2163 13.0877 35.9333 13.1667 35.6659L2.53027 25.0295C1.50667 24.0059 0.914062 22.5782 0.914062 21.1236V17.7835C0.914062 16.3289 1.50667 14.9012 2.53027 13.8776L4.64138 11.7712C4.2213 11.0251 3.98168 10.1637 3.98168 9.24642C3.98168 6.39978 6.28933 4.09212 9.13597 4.09212C10.0574 4.09212 10.9224 4.33391 11.6709 4.75749L14.571 1.86383C15.5946 0.840229 16.9953 0.24762 18.4768 0.24762H23.6487C25.1033 0.24762 26.5309 0.840229 27.5545 1.86383L34.6658 8.97513C36.8208 11.1301 40.3226 11.1301 42.4775 8.97513L49.5888 1.86383C49.7089 1.74379 49.8345 1.62967 49.965 1.52175C50.1384 -1.65537 52.7695 -4.17822 55.9899 -4.17822C59.1591 -4.17822 61.7576 -1.73505 62.0047 1.37054ZM34.8273 50.2781C34.2515 49.911 33.5677 49.6984 32.8343 49.6984C32.1578 49.6984 31.5236 49.8793 30.9774 50.1954L18.6543 37.8722C18.6678 37.846 18.681 37.8195 18.6939 37.7928L37.7937 43.7064C37.8288 43.2382 37.9678 42.7989 38.1876 42.4116L18.9845 36.466C18.9811 36.2312 18.9505 36.003 18.8957 35.7844L27.3202 32.2866C27.078 31.9102 26.905 31.4851 26.8191 31.0292L18.2714 34.5782C18.0411 34.3095 17.7637 34.0823 17.4519 33.9096L21.201 22.0009C20.769 21.8272 20.3638 21.6009 19.9933 21.3299L16.1486 33.5425C16.1043 33.5405 16.0598 33.5395 16.015 33.5395L15.9729 33.5398L10.7313 14.1491C11.7157 13.829 12.57 13.2207 13.1947 12.4238L17.9774 15.1225C18.1182 14.6861 18.3114 14.2733 18.5496 13.8914L13.8829 11.2581C14.1452 10.64 14.2903 9.96015 14.2903 9.24642C14.2903 8.16219 13.9555 7.15616 13.3837 6.32604L16.2098 3.50627L16.2116 3.50443C16.8042 2.91184 17.6165 2.56778 18.4768 2.56778H23.6487C24.4881 2.56778 25.3256 2.91609 25.9139 3.50443L31.4838 9.07434V18.6108L28.7521 17.8467C28.669 18.2987 28.5313 18.7317 28.346 19.1384L31.9761 20.1539L31.9783 20.1545L40.5286 22.5773C40.5493 22.1067 40.6767 21.6638 40.8872 21.2723L32.8373 18.9912V10.4278L33.0252 10.6157C36.0863 13.6768 41.0571 13.6768 44.1181 10.6157L50.46 4.27389C50.904 5.28782 51.6186 6.15621 52.5126 6.78767L44.4829 19.8031C44.9245 19.9408 45.323 20.1763 45.653 20.4841L53.7003 7.44022C54.4063 7.73 55.1795 7.88978 55.9899 7.88978C56.4024 7.88978 56.8052 7.84839 57.1944 7.76955L58.9728 15.7351C59.3796 15.5528 59.8191 15.4306 60.2802 15.3798L58.4875 7.35022C59.8808 6.71584 60.9905 5.56708 61.5739 4.14656L72.9474 15.5201C73.5129 16.1269 73.8553 16.9536 73.8553 17.8104V21.1506C73.8553 21.99 73.507 22.8275 72.9186 23.4158L69.7175 26.6139C69.3191 26.4153 68.8699 26.3037 68.3945 26.3037C67.993 26.3037 67.61 26.3834 67.2606 26.5279L63.9704 22.7477C63.6608 23.0778 63.3007 23.3601 62.9025 23.5822L66.1567 27.3211C65.7095 27.8332 65.4353 28.5002 65.4251 29.231L50.9636 33.0307C51.1177 33.4477 51.2115 33.894 51.2343 34.359L65.7145 30.5544L65.7232 30.5724L65.7337 30.5938L44.7166 51.5909L44.7158 51.5917C44.1275 52.18 43.29 52.5283 42.4506 52.5283H36.4415C36.3227 52.0413 36.1079 51.5919 35.8182 51.2014L39.631 46.781C39.2101 46.5941 38.8384 46.3163 38.541 45.9726L34.8273 50.2781ZM14.6592 33.8664L14.6521 33.8701L4.17087 23.3889C3.58253 22.8005 3.23422 21.9631 3.23422 21.1236V17.7835C3.23422 16.9445 3.58214 16.1075 4.16988 15.5192L4.17087 15.5182L6.20609 13.4876C7.03803 14.0634 8.04761 14.4007 9.13597 14.4007C9.22304 14.4007 9.30961 14.3986 9.39562 14.3943L14.6592 33.8664ZM46.3918 21.5482L56.3783 19.9087C56.3954 20.3739 56.4849 20.8206 56.6358 21.2379L46.618 22.8826C46.621 22.8267 46.6226 22.7705 46.6226 22.7138C46.6226 22.301 46.5405 21.9073 46.3918 21.5482ZM40.6461 23.5654L32.9498 27.9998C33.2508 28.3355 33.4888 28.7288 33.6452 29.1612L41.3038 24.7484C41.0029 24.4128 40.7752 24.0101 40.6461 23.5654ZM43.64 25.7616L44.9702 30.4839C45.3779 30.3049 45.8175 30.185 46.278 30.135L44.9535 25.4331C44.5577 25.6343 44.112 25.7516 43.64 25.7616ZM45.2008 38.7731L43.237 41.9098C42.9392 41.5662 42.5672 41.2885 42.146 41.1019L44.0184 38.1113C44.3735 38.3882 44.7715 38.6127 45.2008 38.7731ZM32.9824 32.7003L39.6497 41.0947C39.2282 41.2785 38.8554 41.5531 38.5561 41.8939L31.9153 33.5329C32.3227 33.3255 32.6846 33.0416 32.9824 32.7003ZM27.5321 16.8349C27.5321 19.186 25.6262 21.0919 23.2752 21.0919C20.9241 21.0919 19.0182 19.186 19.0182 16.8349C19.0182 14.4839 20.9241 12.578 23.2752 12.578C25.6262 12.578 27.5321 14.4839 27.5321 16.8349ZM32.6499 30.3675C32.6499 31.6617 31.6008 32.7108 30.3066 32.7108C29.0125 32.7108 27.9634 31.6617 27.9634 30.3675C27.9634 29.0734 29.0125 28.0243 30.3066 28.0243C31.6008 28.0243 32.6499 29.0734 32.6499 30.3675ZM40.8885 45.8201C41.9254 45.8201 42.7659 44.9795 42.7659 43.9427C42.7659 42.9058 41.9254 42.0653 40.8885 42.0653C39.8517 42.0653 39.0111 42.9058 39.0111 43.9427C39.0111 44.9795 39.8517 45.8201 40.8885 45.8201ZM45.4526 22.7142C45.4526 23.751 44.6121 24.5916 43.5752 24.5916C42.5383 24.5916 41.6978 23.751 41.6978 22.7142C41.6978 21.6773 42.5383 20.8368 43.5752 20.8368C44.6121 20.8368 45.4526 21.6773 45.4526 22.7142ZM63.7394 19.7448C63.7394 21.385 62.4098 22.7146 60.7696 22.7146C59.1294 22.7146 57.7997 21.385 57.7997 19.7448C57.7997 18.1046 59.1294 16.7749 60.7696 16.7749C62.4098 16.7749 63.7394 18.1046 63.7394 19.7448ZM46.7664 37.7685C48.5282 37.7685 49.9564 36.3402 49.9564 34.5785C49.9564 32.8167 48.5282 31.3884 46.7664 31.3884C45.0046 31.3884 43.5764 32.8167 43.5764 34.5785C43.5764 36.3402 45.0046 37.7685 46.7664 37.7685Z" fill="white"/>
</g>
<path d="M120.699 13.4951H124.936V37.5654H120.699V13.4951Z" fill="white"/>
<path d="M157.111 13.4951L168.665 37.5654H164.139L153.645 15.1078H155.282L144.787 37.5654H140.262L151.815 13.4951H157.111ZM145.942 32.0533V28.5631H162.767V32.0533H145.942Z" fill="white"/>
<path d="M106.087 13.4951L117.641 37.5654H113.116L102.621 15.1078H104.258L93.7635 37.5654H89.2383L100.792 13.4951H106.087ZM94.9189 32.0533V28.5631H111.744V32.0533H94.9189Z" fill="white"/>
<path d="M195.646 28.0372C195.429 30.011 194.731 31.744 193.576 33.2605C192.42 34.7769 190.88 35.9322 189.002 36.7747C187.125 37.6172 184.959 38.0264 182.552 38.0264C179.856 38.0264 177.497 37.4968 175.451 36.4618C173.429 35.4027 171.84 33.9585 170.709 32.081C169.578 30.2035 169 28.0372 169 25.558C169 23.0787 169.578 20.8884 170.709 19.035C171.84 17.1575 173.429 15.7133 175.451 14.6542C177.473 13.5951 179.856 13.0896 182.552 13.0896C184.959 13.0896 187.125 13.4988 189.002 14.3413C190.88 15.1837 192.42 16.3391 193.576 17.8314C194.731 19.3238 195.429 21.0809 195.646 23.0547H191.385C191.145 21.7789 190.639 20.6717 189.869 19.7571C189.099 18.8424 188.088 18.1203 186.836 17.6148C185.584 17.1093 184.164 16.8686 182.527 16.8686C180.65 16.8686 179.013 17.2297 177.641 17.9277C176.269 18.6257 175.186 19.6367 174.44 20.9365C173.694 22.2363 173.309 23.7768 173.309 25.558C173.309 27.3392 173.694 28.8797 174.44 30.1795C175.186 31.4793 176.245 32.4902 177.641 33.1882C179.037 33.8863 180.65 34.2473 182.527 34.2473C184.164 34.2473 185.584 34.0066 186.836 33.5012C188.088 33.0198 189.099 32.2976 189.869 31.3589C190.639 30.4202 191.169 29.3129 191.385 28.0372H195.646Z" fill="white"/>
<path d="M212.81 13.4951L224.364 37.5654H219.839L209.344 15.1078H210.981L200.486 37.5654H195.961L207.515 13.4951H212.81ZM201.642 32.0533V28.5631H218.467V32.0533H201.642Z" fill="white"/>
<path d="M238.157 13.4951C240.901 13.4951 243.308 14.0006 245.354 15.0115C247.424 16.0225 249.037 17.4186 250.192 19.2238C251.348 21.0291 251.925 23.1232 251.925 25.5302C251.925 27.9373 251.348 30.0314 250.192 31.8366C249.037 33.6419 247.424 35.062 245.354 36.0489C243.284 37.0599 240.877 37.5654 238.157 37.5654H227.277V13.4951H238.157ZM231.514 36.0971L229.179 33.8585H238.446C240.275 33.8585 241.888 33.5216 243.284 32.8235C244.656 32.1255 245.739 31.1627 246.485 29.911C247.256 28.6594 247.617 27.2151 247.617 25.5543C247.617 23.8935 247.232 22.4252 246.485 21.1976C245.715 19.9459 244.656 18.9831 243.284 18.2851C241.912 17.587 240.299 17.2501 238.446 17.2501H229.179L231.514 15.0115V36.0971Z" fill="white"/>
<path d="M261.022 25.5302L259.313 36.2896L257.291 33.9067H275.97V37.5654H254.98L256.906 25.5302L254.98 13.4951H275.801V17.1538H257.291L259.313 14.7708L261.022 25.5302ZM275.031 23.7731V27.3114H258.206V23.7731H275.031Z" fill="white"/>
<path d="M312.772 13.5009V37.5711H308.728V14.7766L310.052 14.8488L298.86 37.5711H294.334L283.142 14.8729L284.466 14.8007V37.547H280.422V13.4768H286.897L297.68 35.7177H295.562L306.321 13.4768H312.772V13.5009Z" fill="white"/>
<path d="M315.977 13.4951H320.767L330.587 25.8191H328.301L338.121 13.4951H342.911L330.804 28.6834L328.108 28.7075L315.977 13.4951ZM327.338 37.5654V26.0838H331.574V37.5654H327.338Z" fill="white"/>
</svg>
